# xmcd
#
# Track frame offsets: 
#        182
#        25017
#        47542
#        67935
#        92672
#        116872
#        138337
#        158532
#        179122
#        200252
#        220712
#
# Disc length: 3411 seconds
#
# Revision: 2
# Processed by: cddbd v1.5.2PL0 Copyright (c) Steve Scherf et al.
# Submitted via: ExactAudioCopy v1.3
#
DISCID=900d510b
DTITLE=Ready For The World - Ruff 'N' Ready
DYEAR=1988
DGENRE=Funk
TTITLE0=My Girly
TTITLE1=Shame
TTITLE2=Cowboy
TTITLE3=Gently
TTITLE4=Money
TTITLE5=Darlin', Darlin'
TTITLE6=Don't You Wanna (With Me)
TTITLE7=Late Satruday Night
TTITLE8=It's Funny
TTITLE9=It's All Up To You
TTITLE10=My Girly (Extended Version)
EXTD=
EXTT0=
EXTT1=
EXTT2=
EXTT3=
EXTT4=
EXTT5=
EXTT6=
EXTT7=
EXTT8=
EXTT9=
EXTT10=
PLAYORDER=
